<?xml version="1.0" encoding="UTF-8"?>
<svg enable-background="new 0 0 499.1 499.1" version="1.1" viewBox="0 0 499.1 499.1" xml:space="preserve" xmlns="http://www.w3.org/2000/svg">
			<path d="m0 249.6c0 9.5 7.7 17.2 17.2 17.2h327.6l-63.9 63.8c-6.7 6.7-6.7 17.6 0 24.3 3.3 3.3 7.7 5 12.1 5s8.8-1.7 12.1-5l93.1-93.1c6.7-6.7 6.7-17.6 0-24.3l-93.1-93.1c-6.7-6.7-17.6-6.7-24.3 0s-6.7 17.6 0 24.3l63.8 63.8h-327.4c-9.5 0-17.2 7.6-17.2 17.1z"/>
			<path d="m396.4 494.2c56.7 0 102.7-46.1 102.7-102.8v-283.7c0-56.7-46.1-102.8-102.7-102.8h-283.7c-56.7 0-102.7 46.1-102.7 102.8v58.3c0 9.5 7.7 17.1 17.1 17.1 9.5 0 17.2-7.7 17.2-17.1v-58.3c0-37.7 30.7-68.5 68.4-68.5h283.7c37.7 0 68.4 30.7 68.4 68.5v283.7c0 37.7-30.7 68.5-68.4 68.5h-283.7c-37.7 0-68.4-30.7-68.4-68.5v-57.6c0-9.5-7.7-17.2-17.2-17.2s-17.1 7.7-17.1 17.2v57.6c0 56.7 46.1 102.8 102.7 102.8h283.7z"/>
</svg>
