<?xml version="1.0" encoding="UTF-8"?>
<svg enable-background="new 0 0 512 512" version="1.1" viewBox="0 0 512 512" xml:space="preserve" xmlns="http://www.w3.org/2000/svg">
<path d="m474.66 74.503c-25.486-28.783-60.712-44.633-99.188-44.633-30.225 0-58.5 12.299-81.767 35.566-15.522 15.523-28.33 35.26-37.699 57.931-9.371-22.671-22.177-42.407-37.699-57.931-23.267-23.267-51.542-35.566-81.767-35.566-38.477 0-73.702 15.851-99.188 44.634-23.735 26.801-37.347 63.407-37.347 100.43 0 44.458 13.452 88.335 39.981 130.42 21.009 33.324 50.227 65.585 86.845 95.889 62.046 51.348 123.11 78.995 125.68 80.146 2.203 0.988 4.779 0.988 6.981 0 2.57-1.151 63.637-28.798 125.68-80.146 36.618-30.304 65.836-62.565 86.845-95.889 26.53-42.083 39.982-85.96 39.982-130.42 0-37.025-13.612-73.631-37.345-100.43z" fill="#FF6647"/>
<path d="m160.96 401.24c-36.618-30.304-65.836-62.565-86.845-95.889-26.529-42.083-39.981-85.961-39.981-130.42 0-37.025 13.612-73.631 37.345-100.43 21.44-24.213 49.775-39.271 81.138-43.443-5.286-0.786-10.653-1.189-16.082-1.189-38.477 0-73.702 15.851-99.188 44.634-23.734 26.8-37.346 63.406-37.346 100.43 0 44.458 13.452 88.335 39.981 130.42 21.009 33.324 50.227 65.585 86.845 95.889 62.046 51.348 123.11 78.995 125.68 80.146 2.203 0.988 4.779 0.988 6.981 0 0.689-0.308 5.586-2.524 13.577-6.588-21.813-11.092-66.696-35.976-112.11-73.558z" fill="#E35336"/>
</svg>
