<?xml version="1.0" encoding="UTF-8"?>
<!DOCTYPE svg  PUBLIC '-//W3C//DTD SVG 1.1//EN'  'http://www.w3.org/Graphics/SVG/1.1/DTD/svg11.dtd'>
<svg enable-background="new 0 0 94.026 94.026" version="1.1" viewBox="0 0 94.026 94.026" xml:space="preserve" xmlns="http://www.w3.org/2000/svg">
			<path d="m76.497 6.772c3.207 4.848 3.565 12.041 1.078 21.434 6.192 2.121 14.082 8.084 15.953 24.516 1.612 14.15-0.69 24.828-6.856 31.734-4.978 5.579-11.988 8.407-20.841 8.407-14.853 0-31.035-8.331-34.131-10.002-2.996-1.619-4.857-4.741-4.857-8.146v-39.466c0-4.497 3.213-8.331 7.646-9.118 1.334-0.235 13.113-2.533 15.66-10.566 2.774-8.749 9.098-14.402 16.112-14.402 4.139 0 7.87 2.043 10.236 5.609zm-39.431 67.364c3.143 1.646 16.955 8.504 28.766 8.504 5.895 0 10.217-1.633 13.213-4.989 4.143-4.642 5.598-12.638 4.328-23.771-1.215-10.654-5.619-16.543-12.404-16.583l-7.16-0.042 2.367-6.759c2.982-8.516 3.654-15.275 1.801-18.076-0.313-0.471-0.864-1.033-1.715-1.033-1.971 0-4.871 2.548-6.367 7.268-3.992 12.592-18.35 16.475-22.828 17.391l-1e-3 38.09z"/>
			<path d="m20.011 82.123v-51.787c0-1.118-0.906-2.024-2.025-2.024h-15.963c-1.117 0-2.023 0.906-2.023 2.024v51.787c0 1.119 0.906 2.024 2.023 2.024h15.963c1.119 0 2.025-0.905 2.025-2.024zm-6.084-5.95c0 2.162-1.76 3.922-3.922 3.922s-3.922-1.76-3.922-3.922 1.76-3.922 3.922-3.922 3.922 1.76 3.922 3.922z"/>
</svg>
